<svg width="25" height="25" viewBox="0 0 25 25" fill="none" xmlns="http://www.w3.org/2000/svg">
<path d="M10.3606 13.5278C10.802 14.1179 11.3651 14.6061 12.0118 14.9595C12.6585 15.3128 13.3736 15.5229 14.1087 15.5755C14.8437 15.6282 15.5814 15.5221 16.2719 15.2646C16.9623 15.007 17.5893 14.604 18.1103 14.0828L21.1937 10.9994C22.1298 10.0301 22.6478 8.732 22.6361 7.38455C22.6244 6.03711 22.0839 4.74818 21.1311 3.79535C20.1783 2.84253 18.8893 2.30206 17.5419 2.29036C16.1945 2.27865 14.8963 2.79663 13.9271 3.73275L12.1593 5.49031" stroke="white" stroke-width="3.2" stroke-linecap="round" stroke-linejoin="round"/>
<path d="M14.4717 11.4722C14.0304 10.8821 13.4672 10.3938 12.8205 10.0405C12.1738 9.68719 11.4587 9.47709 10.7237 9.42445C9.98866 9.3718 9.2509 9.47786 8.56046 9.73541C7.87002 9.99297 7.24305 10.396 6.72207 10.9172L3.63864 14.0006C2.70252 14.9698 2.18453 16.268 2.19624 17.6154C2.20795 18.9629 2.74842 20.2518 3.70124 21.2046C4.65406 22.1574 5.943 22.6979 7.29044 22.7096C8.63788 22.7213 9.93601 22.2033 10.9053 21.2672L12.6688 19.5036" stroke="white" stroke-width="3.2" stroke-linecap="round" stroke-linejoin="round"/>
</svg>
