<svg width="17" height="17" viewBox="0 0 17 17" fill="none" xmlns="http://www.w3.org/2000/svg">
<path d="M7.07373 9.18517C7.36799 9.57856 7.74342 9.90407 8.17455 10.1396C8.60568 10.3752 9.08242 10.5152 9.57244 10.5503C10.0625 10.5854 10.5543 10.5147 11.0146 10.343C11.4749 10.1713 11.8929 9.90262 12.2402 9.55518L14.2958 7.49956C14.9199 6.8534 15.2652 5.98798 15.2574 5.08968C15.2496 4.19139 14.8893 3.3321 14.2541 2.69688C13.6189 2.06167 12.7596 1.70136 11.8613 1.69355C10.963 1.68574 10.0976 2.03107 9.4514 2.65515L8.27284 3.82685" stroke="white" stroke-width="2.13333" stroke-linecap="round" stroke-linejoin="round"/>
<path d="M9.81466 7.81483C9.5204 7.42143 9.14497 7.09592 8.71384 6.86038C8.28272 6.62483 7.80597 6.48477 7.31595 6.44967C6.82593 6.41458 6.3341 6.48528 5.8738 6.65698C5.41351 6.82868 4.99553 7.09737 4.64821 7.44482L2.59259 9.50044C1.96851 10.1466 1.62318 11.012 1.63099 11.9103C1.63879 12.8086 1.99911 13.6679 2.63432 14.3031C3.26954 14.9383 4.12883 15.2986 5.02712 15.3064C5.92542 15.3143 6.79084 14.9689 7.437 14.3448L8.6127 13.1691" stroke="white" stroke-width="2.13333" stroke-linecap="round" stroke-linejoin="round"/>
</svg>
